<svg xmlns="http://www.w3.org/2000/svg" width="32" height="32" viewBox="0 0 32 32">
  <g id="FavIcon2" transform="translate(665 -403)">
    <g id="Retângulo_36" data-name="Retângulo 36" transform="translate(-665 403)" stroke="#fec63e" stroke-width="2">
      <rect width="32" height="32" stroke="none"/>
      <rect x="1" y="1" width="30" height="30" fill="none"/>
    </g>
    <g id="bikcraft" transform="translate(-674 390.985)">
      <path id="Caminho_4" data-name="Caminho 4" d="M9.1,9.44a42.193,42.193,0,0,0,5.891-.5c-.051.655-.151,2.668-.151,6.494v1.711a6.12,6.12,0,0,1,3.978-1.762,4.147,4.147,0,0,1,3.625,1.863,7.9,7.9,0,0,1,1.007,4.078c0,4.681-2.215,7.349-6.7,7.349a8.447,8.447,0,0,1-3.524-.856c-.6.2-1.41.6-2.215.856l-.252-.151c.051-1.359.051-3.926.051-7.4V14.675c0-1.611-.051-2.718-.1-3.674-.051-.655-.2-.755-1.712-.755Zm7.652,18.273c1.712,0,2.517-2.064,2.517-5.89a8.312,8.312,0,0,0-.7-3.725,1.815,1.815,0,0,0-1.611-1.007A2.319,2.319,0,0,0,15.091,18.2c-.251.353-.352.655-.352,4.631,0,3.272.151,3.373.353,3.776A1.812,1.812,0,0,0,16.753,27.713Z" transform="translate(9.002 8.939)" fill="#fec63e"/>
    </g>
  </g>
</svg>
